<svg xmlns="http://www.w3.org/2000/svg" fill="none" class="icon icon-account" viewBox="0 0 18 19"><path fill="currentColor" fill-rule="evenodd" d="M9,3.788c-1.773,0-3.216,1.443-3.216,3.216s1.443,3.216,3.216,3.216,3.216-1.443,3.216-3.216-1.443-3.216-3.216-3.216ZM9,9.307c-1.27,0-2.304-1.034-2.304-2.304s1.034-2.304,2.304-2.304,2.304,1.034,2.304,2.304-1.034,2.304-2.304,2.304Z"/><path fill="currentColor" fill-rule="evenodd" d="M9,.736C4.142.736.189,4.669.189,9.504c0,2.626,1.168,5.092,3.206,6.765l.614.46c1.461.999,3.207,1.543,4.991,1.543,1.749,0,3.467-.525,4.912-1.489l.6-.438c2.097-1.675,3.299-4.168,3.299-6.84C17.811,4.669,13.858.736,9,.736ZM4.184,15.722c.326-1.686,1.188-4.195,3.438-4.195h.047l2.351-.007c2.39-.058,3.336,2.533,3.702,4.273-1.372,1.022-2.997,1.567-4.723,1.567-1.743,0-3.441-.584-4.816-1.638h.001ZM14.507,15.135c-.729-2.895-2.308-4.528-4.404-4.528-.031,0-.063,0-.095.001l-2.333.007c-1.25-.013-3.377.554-4.28,4.425-1.466-1.467-2.294-3.445-2.294-5.536,0-4.332,3.543-7.856,7.899-7.856s7.899,3.524,7.899,7.856c0,2.142-.863,4.156-2.392,5.631Z"/></svg>




