<?xml version="1.0" encoding="UTF-8"?>
<svg id="Layer_1" xmlns="http://www.w3.org/2000/svg" width=".6in" height=".6in" version="1.1" viewBox="0 0 40 40"><path fill="currentColor" fill-rule="evenodd" class="st0" d="M26.934,11.763h-1.744c-.666-3.047-2.531-5.067-4.851-5.067-1.098,0-2.142.451-3.019,1.307-.956.931-1.617,2.273-1.893,3.762h-1.032c-2.222,0-4.029,1.741-4.029,3.881l1.065,9.14c.018,2.125,1.818,3.848,4.032,3.848l10.408-.051c2.21,0,4.009-1.723,4.027-3.848l1.061-9.028.004-.063c0-2.14-1.807-3.881-4.029-3.881ZM18.144,8.789c.655-.639,1.414-.975,2.196-.975,1.667,0,3.075,1.587,3.663,3.951h-7.393c.252-1.186.782-2.243,1.535-2.975h-.001ZM25.466,14.879c-.011-.195-.024-1.246-.046-1.535-.012-.157-.031-.309-.048-.463h1.561c1.572,0,2.853,1.224,2.87,2.734l-1.061,9.026-.004.063c0,1.524-1.288,2.764-2.87,2.764l-10.41.051c-1.582,0-2.87-1.24-2.87-2.764l-1.065-9.137c.017-1.51,1.298-2.734,2.87-2.734h.904c-.009.18-.021.36-.018.542.003.297.019,1.249.022,1.453.009.603,1.172.567,1.161,0-.004-.234-.02-1.157-.024-1.465-.002-.178.007-.354.017-.53h7.751c.023.177.042.357.056.541.023.311.034,1.306.042,1.455.031.59,1.193.618,1.16,0h.002Z"/>
</svg>